#!OML:ASF X:\für Bonn\!DataBase\2005_08_11_Bastian_Final\c3d\Bastian.ASF
:FULLY-SPECIFIED
:DEGREES
2645
root 4.81874 17.521 -27.7072 168.083 8.67315 -176.299
lowerback 4.54868 -5.82816 4.47072
upperback 8.43143 -7.01501 1.64423
thorax 5.91774 -2.91477 -0.744066
lowerneck 0.442345 -0.70569 0.408053
upperneck 17.2638 -0.127138 0.970173
head 5.11213 0.419408 0.264001
rclavicle -4.64162e-014 7.15625e-015
rhumerus -400.294 -5.84226 280.314
rradius 79.7783
rwrist -142.879
rhand -7.21908 10.6067
rfingers 7.12502
rthumb 18.6601 -378.518
lclavicle -4.64162e-014 7.15625e-015
lhumerus -28.0364 -6.14035 86.0128
lradius 67.3375
lwrist 220.254
lhand -29.0654 14.66
lfingers 7.12502
lthumb -2.4149 44.6261
rfemur -15.6784 -4.63471 22.5973
rtibia 37.4046
rfoot -1.04867 0.976294
rtoes 0.358329
lfemur 22.7042 2.55851 -12.4485
ltibia 41.3804
lfoot 7.87017 -11.399
ltoes -30.3278
2646
root 4.7911 17.4645 -27.545 167.985 8.42411 -176.116
lowerback 4.65397 -5.91653 4.33189
upperback 8.53712 -7.11254 1.64014
thorax 5.98405 -2.9606 -0.666795
lowerneck 0.617133 -0.722154 0.444918
upperneck 17.7459 -0.0610874 0.807619
head 5.23213 0.472116 0.213797
rclavicle -2.18663e-015 -1.11319e-014
rhumerus -400.169 -5.64212 280.085
rradius 80.3648
rwrist -142.734
rhand -7.57886 10.7904
rfingers 7.12502
rthumb 18.314 -378.367
lclavicle -2.18663e-015 -1.11319e-014
lhumerus -27.6939 -5.41333 85.6196
lradius 67.5983
lwrist 220.308
lhand -29.0728 14.8683
lfingers 7.12502
lthumb -2.42197 44.8343
rfemur -16.4045 -4.90128 22.756
rtibia 37.8111
rfoot -0.799691 0.925389
rtoes -0.104106
lfemur 23.1856 2.15668 -12.5672
ltibia 40.3633
lfoot 6.83895 -11.5435
ltoes -28.6446
2647
root 4.76196 17.4084 -27.377 167.887 8.20427 -175.887
lowerback 4.83916 -5.9961 4.2254
upperback 8.64184 -7.18871 1.66938
thorax 6.00622 -2.99407 -0.564623
lowerneck 0.797074 -0.739178 0.468923
upperneck 18.1307 0.00820829 0.577846
head 5.32149 0.51714 0.144117
rclavicle -4.96962e-016 1.43125e-014
rhumerus -400.08 -5.32857 279.896
rradius 80.9806
rwrist -142.611
rhand -7.94788 10.9557
rfingers 7.12502
rthumb 17.959 -378.235
lclavicle -4.96962e-016 1.43125e-014
lhumerus -27.3498 -4.69181 85.2892
lradius 67.8734
lwrist 220.421
lhand -29.0788 15.1152
lfingers 7.12502
lthumb -2.42778 45.0811
rfemur -17.1188 -5.08006 22.9692
rtibia 38.1649
rfoot -0.486887 0.789257
rtoes -0.503251
lfemur 23.645 1.78363 -12.6057
ltibia 39.3216
lfoot 5.70861 -11.707
ltoes -26.8376
2648
root 4.73129 17.3511 -27.202 167.749 7.99595 -175.764
lowerback 5.11127 -6.06252 4.00409
upperback 8.75603 -7.24046 1.66605
thorax 6.0003 -3.0217 -0.426322
lowerneck 0.858082 -0.756252 0.55172
upperneck 18.5764 0.0855189 0.28524
head 5.4503 0.565924 0.0454998
rclavicle 3.18552e-014 1.78906e-014
rhumerus -399.961 -5.08556 279.687
rradius 81.5262
rwrist -142.331
rhand -8.3158 11.0053
rfingers 7.12502
rthumb 17.605 -378.218
lclavicle 3.18552e-014 1.78906e-014
lhumerus -27.0222 -4.02933 84.9465
lradius 68.1513
lwrist 220.578
lhand -29.0975 15.4637
lfingers 7.12502
lthumb -2.44592 45.4294
rfemur -17.8141 -5.18646 23.066
rtibia 38.4661
rfoot -0.100187 0.556933
rtoes -0.900617
lfemur 24.108 1.42694 -12.7785
ltibia 38.2496
lfoot 4.40387 -11.832
ltoes -25.4453
2649
root 4.70017 17.293 -27.0211 167.508 7.8232 -175.772
lowerback 5.54918 -6.10622 3.61279
upperback 8.86601 -7.2515 1.63372
thorax 5.91513 -3.04016 -0.210432
lowerneck 0.935098 -0.760232 0.577771
upperneck 19.0076 0.178634 0.0466594
head 5.57264 0.621871 -0.0262396
rclavicle -5.76972e-014 2.34566e-014
rhumerus -399.952 -4.73189 279.496
rradius 82.0861
rwrist -141.991
rhand -8.65413 10.9923
rfingers 7.12502
rthumb 17.2793 -378.259
lclavicle -5.76972e-014 2.34566e-014
lhumerus -26.7619 -3.38824 84.636
lradius 68.3863
lwrist 220.767
lhand -29.035 15.926
lfingers 7.12502
lthumb -2.38546 45.8924
rfemur -18.4042 -5.12299 23.015
rtibia 38.707
rfoot 0.332021 0.204779
rtoes -1.20642
lfemur 24.6532 1.12837 -13.0759
ltibia 37.1395
lfoot 3.0419 -11.9292
ltoes -23.8533
2650
root 4.66772 17.235 -26.8356 167.242 7.67755 -175.762
lowerback 6.05135 -6.12397 3.26771
upperback 8.98565 -7.22182 1.5787
thorax 5.79752 -3.0334 -0.0372706
lowerneck 1.07437 -0.775172 0.557484
upperneck 19.3196 0.23011 -0.0541547
head 5.64735 0.659418 -0.0496861
rclavicle -1.65985e-014 2.50469e-014
rhumerus -400.02 -4.46672 279.275
rradius 82.6209
rwrist -141.481
rhand -8.94463 10.8744
rfingers 7.12502
rthumb 16.9997 -378.402
lclavicle -1.65985e-014 2.50469e-014
lhumerus -26.5056 -2.83951 84.3142
lradius 68.5787
lwrist 220.964
lhand -28.9709 16.5192
lfingers 7.12502
lthumb -2.32359 46.4863
rfemur -18.9457 -4.92962 22.9818
rtibia 38.8858
rfoot 0.857096 -0.221342
rtoes -1.33936
lfemur 25.2067 0.875871 -13.3224
ltibia 35.9998
lfoot 1.53654 -12.0733
ltoes -22.7439
2651
root 4.63394 17.1785 -26.6473 166.971 7.54164 -175.813
lowerback 6.59082 -6.1248 2.83648
upperback 9.10476 -7.17197 1.51881
thorax 5.66974 -3.02136 0.180124
lowerneck 1.17811 -0.808647 0.53977
upperneck 19.597 0.260864 -0.221376
head 5.71742 0.679957 -0.0957213
rclavicle 1.22253e-014 9.14409e-015
rhumerus -400.168 -4.12878 279.064
rradius 83.1758
rwrist -140.891
rhand -9.16663 10.7816
rfingers 7.12502
rthumb 16.786 -378.513
lclavicle 1.22253e-014 9.14409e-015
lhumerus -26.273 -2.33193 84.0158
lradius 68.7687
lwrist 221.274
lhand -28.8232 17.03
lfingers 7.12502
lthumb -2.18094 46.9986
rfemur -19.4595 -4.65043 22.8627
rtibia 38.9939
rfoot 1.44963 -0.682227
rtoes -1.27531
lfemur 25.7553 0.641256 -13.6385
ltibia 34.8195
lfoot -0.0630589 -12.1737
ltoes -21.6047
2652
root 4.59922 17.1233 -26.4559 166.686 7.43912 -175.865
lowerback 7.17549 -6.09979 2.38421
upperback 9.23537 -7.08633 1.46841
thorax 5.5343 -2.99065 0.421224
lowerneck 1.30149 -0.849452 0.527998
upperneck 19.8096 0.274527 -0.379537
head 5.76382 0.690699 -0.141228
rclavicle -9.44227e-015 6.36111e-015
rhumerus -400.398 -3.75281 278.894
rradius 83.7139
rwrist -140.426
rhand -9.30418 10.6782
rfingers 7.12502
rthumb 16.6536 -378.627
lclavicle -9.44227e-015 6.36111e-015
lhumerus -26.0555 -1.88342 83.7529
lradius 68.9771
lwrist 221.552
lhand -28.5906 17.5422
lfingers 7.12502
lthumb -1.95635 47.513
rfemur -19.9286 -4.33834 22.7394
rtibia 39.0379
rfoot 2.09306 -1.09839
rtoes -1.39379
lfemur 26.3188 0.46175 -13.9183
ltibia 33.6152
lfoot -1.7145 -12.3102
ltoes -20.3305
2653
root 4.56207 17.0709 -26.2644 166.394 7.33029 -175.942
lowerback 7.764 -6.07054 1.93263
upperback 9.37433 -6.99737 1.40324
thorax 5.40453 -2.95611 0.645894
lowerneck 1.36886 -0.879767 0.477687
upperneck 20.046 0.294461 -0.481453
head 5.82738 0.704822 -0.16212
rclavicle -5.46161e-014 2.18663e-014
rhumerus -400.676 -3.42479 278.738
rradius 84.2264
rwrist -140.01
rhand -9.43823 10.5434
rfingers 7.12502
rthumb 16.5246 -378.773
lclavicle -5.46161e-014 2.18663e-014
lhumerus -25.8231 -1.40306 83.4842
lradius 69.2113
lwrist 221.795
lhand -28.3685 17.863
lfingers 7.12502
lthumb -1.74184 47.8356
rfemur -20.3607 -4.00165 22.5595
rtibia 39.0173
rfoot 2.78304 -1.45993
rtoes -1.62435
lfemur 26.877 0.293821 -14.2205
ltibia 32.3971
lfoot -3.42997 -12.4176
ltoes -19.2385
2654
root 4.52335 17.0217 -26.0721 166.115 7.22208 -176.06
lowerback 8.33882 -6.02713 1.44592
upperback 9.51848 -6.89571 1.32064
thorax 5.29075 -2.91592 0.868706
lowerneck 1.45922 -0.876076 0.349117
upperneck 20.1972 0.319952 -0.378585
head 5.86019 0.725771 -0.105496
rclavicle 3.34952e-014 1.98785e-016
rhumerus -401.034 -3.13576 278.59
rradius 84.7256
rwrist -139.703
rhand -9.56282 10.3545
rfingers 7.12502
rthumb 16.4046 -378.972
lclavicle 3.34952e-014 1.98785e-016
lhumerus -25.6031 -0.929368 83.2279
lradius 69.5101
lwrist 222.029
lhand -28.1022 17.9784
lfingers 7.12502
lthumb -1.48466 47.953
rfemur -20.7774 -3.6136 22.3128
rtibia 38.9378
rfoot 3.49821 -1.79886
rtoes -2.05226
lfemur 27.3804 0.153025 -14.5633
ltibia 31.2156
lfoot -5.17229 -12.5174
ltoes -18.6618
2655
root 4.48497 16.9765 -25.8756 165.868 7.12345 -176.187
lowerback 8.93728 -5.97662 0.902187
upperback 9.64348 -6.79298 1.27015
thorax 5.15545 -2.87989 1.15751
lowerneck 1.54296 -0.844093 0.107747
upperneck 20.3009 0.366805 -0.19083
head 5.87912 0.751648 -0.00238017
rclavicle -1.32738e-013 5.40694e-014
rhumerus -401.384 -2.77944 278.482
rradius 85.2009
rwrist -139.31
rhand -9.82116 10.1847
rfingers 7.12502
rthumb 16.1559 -379.162
lclavicle -1.32738e-013 5.40694e-014
lhumerus -25.4057 -0.382093 83.0165
lradius 69.8426
lwrist 222.175
lhand -27.8652 18.0259
lfingers 7.12502
lthumb -1.25576 48.002
rfemur -21.2055 -3.15766 22.0509
rtibia 38.7877
rfoot 4.26173 -2.19592
rtoes -2.64289
lfemur 27.7714 0.070758 -14.8628
ltibia 30.1086
lfoot -6.88548 -12.6256
ltoes -18.3998
2656
root 4.44473 16.9344 -25.6714 165.639 7.02095 -176.342
lowerback 9.58554 -5.90304 0.355426
upperback 9.76662 -6.66197 1.18514
thorax 4.98678 -2.82742 1.41476
lowerneck 1.56639 -0.823759 0.00253504
upperneck 20.415 0.399826 -0.0694107
head 5.91133 0.774985 0.0563691
rclavicle 4.94974e-014 -1.86858e-014
rhumerus -401.78 -2.52891 278.319
rradius 85.7171
rwrist -138.724
rhand -10.1943 10.0486
rfingers 7.12502
rthumb 15.7965 -379.327
lclavicle 4.94974e-014 -1.86858e-014
lhumerus -25.2037 0.0718629 82.777
lradius 70.2397
lwrist 222.316
lhand -27.575 17.8862
lfingers 7.12502
lthumb -0.975444 47.8637
rfemur -21.6456 -2.56226 21.7224
rtibia 38.583
rfoot 4.96525 -2.69147
rtoes -3.47385
lfemur 28.0339 0.0392099 -15.1472
ltibia 29.098
lfoot -8.44696 -12.7514
ltoes -17.9208
2657
root 4.40477 16.8973 -25.4642 165.428 6.88829 -176.535
lowerback 10.2403 -5.82715 -0.243812
upperback 9.88147 -6.53817 1.09202
thorax 4.8122 -2.7807 1.692
lowerneck 1.59683 -0.804901 -0.128558
upperneck 20.5051 0.426714 0.0640777
head 5.93467 0.793152 0.122867
rclavicle 3.03644e-014 6.75868e-015
rhumerus -402.178 -2.32047 278.146
rradius 86.1775
rwrist -138.033
rhand -10.5147 9.89841
rfingers 7.12502
rthumb 15.4879 -379.501
lclavicle 3.03644e-014 6.75868e-015
lhumerus -24.989 0.583003 82.5497
lradius 70.6145
lwrist 222.343
lhand -27.2589 17.6572
lfingers 7.12502
lthumb -0.670108 47.6359
rfemur -22.0781 -1.89638 21.3126
rtibia 38.3274
rfoot 5.64051 -3.28536
rtoes -4.38774
lfemur 28.1747 0.0360876 -15.4408
ltibia 28.1847
lfoot -9.92508 -12.9105
ltoes -17.4615
2658
root 4.36522 16.863 -25.2587 165.246 6.69596 -176.813
lowerback 10.8113 -5.76179 -0.967165
upperback 10.0142 -6.44526 0.975283
thorax 4.71772 -2.7555 2.00456
lowerneck 1.56823 -0.776011 -0.190286
upperneck 20.5951 0.473742 0.111651
head 5.96802 0.818161 0.151419
rclavicle 1.81391e-014 2.88238e-015
rhumerus -402.562 -2.09228 277.946
rradius 86.6013
rwrist -137.332
rhand -10.7508 9.81296
rfingers 7.12502
rthumb 15.2605 -379.604
lclavicle 1.81391e-014 2.88238e-015
lhumerus -24.7541 1.12178 82.3055
lradius 70.9717
lwrist 222.437
lhand -26.9887 17.3488
lfingers 7.12502
lthumb -0.409185 47.3281
rfemur -22.4938 -1.05297 20.7243
rtibia 38.0361
rfoot 6.12978 -4.14485
rtoes -5.18253
lfemur 28.1918 0.143353 -15.7186
ltibia 27.364
lfoot -11.2473 -13.2283
ltoes -16.63
